<mxfile host="Electron" modified="2024-03-15T06:42:36.708Z" agent="Mozilla/5.0 (Windows NT 10.0; Win64; x64) AppleWebKit/537.36 (KHTML, like Gecko) draw.io/21.7.5 Chrome/114.0.5735.289 Electron/25.8.1 Safari/537.36" etag="5Fufp-LHtdJS1An-b2K-" version="21.7.5" type="device">
  <diagram name="Page-1" id="_aD7UwR-0fYYK_b6FZ0-">
    <mxGraphModel dx="2444" dy="932" grid="1" gridSize="10" guides="1" tooltips="1" connect="1" arrows="1" fold="1" page="1" pageScale="1" pageWidth="850" pageHeight="1100" math="0" shadow="0">
      <root>
        <mxCell id="0" />
        <mxCell id="1" parent="0" />
        <mxCell id="x3CIIrRggAREQ0Kq1t4n-1" value="Renter" style="rounded=0;whiteSpace=wrap;html=1;" vertex="1" parent="1">
          <mxGeometry x="200" y="360" width="120" height="40" as="geometry" />
        </mxCell>
        <mxCell id="x3CIIrRggAREQ0Kq1t4n-2" value="Vehicle Owner" style="rounded=0;whiteSpace=wrap;html=1;" vertex="1" parent="1">
          <mxGeometry x="350" y="360" width="120" height="40" as="geometry" />
        </mxCell>
        <mxCell id="x3CIIrRggAREQ0Kq1t4n-3" value="Driver" style="rounded=0;whiteSpace=wrap;html=1;" vertex="1" parent="1">
          <mxGeometry x="520" y="360" width="120" height="40" as="geometry" />
        </mxCell>
        <mxCell id="x3CIIrRggAREQ0Kq1t4n-4" value="User" style="rounded=0;whiteSpace=wrap;html=1;" vertex="1" parent="1">
          <mxGeometry x="350" y="160" width="120" height="40" as="geometry" />
        </mxCell>
        <mxCell id="x3CIIrRggAREQ0Kq1t4n-12" value="" style="endArrow=none;html=1;rounded=0;entryX=0.5;entryY=1;entryDx=0;entryDy=0;exitX=1;exitY=0.5;exitDx=0;exitDy=0;" edge="1" parent="1" source="x3CIIrRggAREQ0Kq1t4n-5" target="x3CIIrRggAREQ0Kq1t4n-4">
          <mxGeometry width="50" height="50" relative="1" as="geometry">
            <mxPoint x="370" y="500" as="sourcePoint" />
            <mxPoint x="420" y="450" as="targetPoint" />
          </mxGeometry>
        </mxCell>
        <mxCell id="x3CIIrRggAREQ0Kq1t4n-13" value="" style="group" vertex="1" connectable="0" parent="1">
          <mxGeometry x="370" y="220" width="80" height="60" as="geometry" />
        </mxCell>
        <mxCell id="x3CIIrRggAREQ0Kq1t4n-5" value="" style="triangle;whiteSpace=wrap;html=1;rotation=-90;" vertex="1" parent="x3CIIrRggAREQ0Kq1t4n-13">
          <mxGeometry x="10" y="-10" width="60" height="80" as="geometry" />
        </mxCell>
        <mxCell id="x3CIIrRggAREQ0Kq1t4n-11" value="ISA" style="text;html=1;strokeColor=none;fillColor=none;align=center;verticalAlign=middle;whiteSpace=wrap;rounded=0;" vertex="1" parent="x3CIIrRggAREQ0Kq1t4n-13">
          <mxGeometry x="10" y="30" width="60" height="30" as="geometry" />
        </mxCell>
        <mxCell id="x3CIIrRggAREQ0Kq1t4n-14" value="" style="endArrow=none;html=1;rounded=0;exitX=0.5;exitY=0;exitDx=0;exitDy=0;entryX=0.5;entryY=1;entryDx=0;entryDy=0;" edge="1" parent="1" source="x3CIIrRggAREQ0Kq1t4n-3" target="x3CIIrRggAREQ0Kq1t4n-11">
          <mxGeometry width="50" height="50" relative="1" as="geometry">
            <mxPoint x="410" y="300" as="sourcePoint" />
            <mxPoint x="460" y="250" as="targetPoint" />
          </mxGeometry>
        </mxCell>
        <mxCell id="x3CIIrRggAREQ0Kq1t4n-15" value="" style="endArrow=none;html=1;rounded=0;exitX=0.5;exitY=0;exitDx=0;exitDy=0;entryX=0.5;entryY=1;entryDx=0;entryDy=0;" edge="1" parent="1" source="x3CIIrRggAREQ0Kq1t4n-2" target="x3CIIrRggAREQ0Kq1t4n-11">
          <mxGeometry width="50" height="50" relative="1" as="geometry">
            <mxPoint x="410" y="300" as="sourcePoint" />
            <mxPoint x="460" y="250" as="targetPoint" />
          </mxGeometry>
        </mxCell>
        <mxCell id="x3CIIrRggAREQ0Kq1t4n-16" value="" style="endArrow=none;html=1;rounded=0;exitX=0.5;exitY=0;exitDx=0;exitDy=0;entryX=0.5;entryY=1;entryDx=0;entryDy=0;" edge="1" parent="1" source="x3CIIrRggAREQ0Kq1t4n-1" target="x3CIIrRggAREQ0Kq1t4n-11">
          <mxGeometry width="50" height="50" relative="1" as="geometry">
            <mxPoint x="410" y="300" as="sourcePoint" />
            <mxPoint x="460" y="250" as="targetPoint" />
          </mxGeometry>
        </mxCell>
        <mxCell id="x3CIIrRggAREQ0Kq1t4n-17" value="UserID" style="ellipse;whiteSpace=wrap;html=1;" vertex="1" parent="1">
          <mxGeometry x="200" y="150" width="80" height="40" as="geometry" />
        </mxCell>
        <mxCell id="x3CIIrRggAREQ0Kq1t4n-18" value="Name" style="ellipse;whiteSpace=wrap;html=1;" vertex="1" parent="1">
          <mxGeometry x="370" y="70" width="80" height="40" as="geometry" />
        </mxCell>
        <mxCell id="x3CIIrRggAREQ0Kq1t4n-19" value="FirstName" style="ellipse;whiteSpace=wrap;html=1;" vertex="1" parent="1">
          <mxGeometry x="330" y="10" width="80" height="40" as="geometry" />
        </mxCell>
        <mxCell id="x3CIIrRggAREQ0Kq1t4n-20" value="LastName" style="ellipse;whiteSpace=wrap;html=1;" vertex="1" parent="1">
          <mxGeometry x="425" y="10" width="80" height="40" as="geometry" />
        </mxCell>
        <mxCell id="x3CIIrRggAREQ0Kq1t4n-21" value="Email" style="ellipse;whiteSpace=wrap;html=1;" vertex="1" parent="1">
          <mxGeometry x="530" y="70" width="80" height="40" as="geometry" />
        </mxCell>
        <mxCell id="x3CIIrRggAREQ0Kq1t4n-22" value="Phone" style="ellipse;whiteSpace=wrap;html=1;" vertex="1" parent="1">
          <mxGeometry x="580" y="140" width="80" height="40" as="geometry" />
        </mxCell>
        <mxCell id="x3CIIrRggAREQ0Kq1t4n-23" value="" style="endArrow=none;html=1;rounded=0;entryX=0;entryY=0.5;entryDx=0;entryDy=0;exitX=1;exitY=0.5;exitDx=0;exitDy=0;" edge="1" parent="1" source="x3CIIrRggAREQ0Kq1t4n-4" target="x3CIIrRggAREQ0Kq1t4n-22">
          <mxGeometry width="50" height="50" relative="1" as="geometry">
            <mxPoint x="410" y="110" as="sourcePoint" />
            <mxPoint x="460" y="60" as="targetPoint" />
          </mxGeometry>
        </mxCell>
        <mxCell id="x3CIIrRggAREQ0Kq1t4n-24" value="" style="endArrow=none;html=1;rounded=0;entryX=0;entryY=0.5;entryDx=0;entryDy=0;exitX=0.75;exitY=0;exitDx=0;exitDy=0;" edge="1" parent="1" source="x3CIIrRggAREQ0Kq1t4n-4" target="x3CIIrRggAREQ0Kq1t4n-21">
          <mxGeometry width="50" height="50" relative="1" as="geometry">
            <mxPoint x="410" y="110" as="sourcePoint" />
            <mxPoint x="460" y="60" as="targetPoint" />
          </mxGeometry>
        </mxCell>
        <mxCell id="x3CIIrRggAREQ0Kq1t4n-25" value="" style="endArrow=none;html=1;rounded=0;entryX=0.5;entryY=0;entryDx=0;entryDy=0;" edge="1" parent="1" source="x3CIIrRggAREQ0Kq1t4n-18" target="x3CIIrRggAREQ0Kq1t4n-4">
          <mxGeometry width="50" height="50" relative="1" as="geometry">
            <mxPoint x="410" y="110" as="sourcePoint" />
            <mxPoint x="460" y="60" as="targetPoint" />
          </mxGeometry>
        </mxCell>
        <mxCell id="x3CIIrRggAREQ0Kq1t4n-26" value="" style="endArrow=none;html=1;rounded=0;entryX=0.5;entryY=1;entryDx=0;entryDy=0;exitX=0.5;exitY=0;exitDx=0;exitDy=0;" edge="1" parent="1" source="x3CIIrRggAREQ0Kq1t4n-18" target="x3CIIrRggAREQ0Kq1t4n-20">
          <mxGeometry width="50" height="50" relative="1" as="geometry">
            <mxPoint x="410" y="110" as="sourcePoint" />
            <mxPoint x="460" y="60" as="targetPoint" />
          </mxGeometry>
        </mxCell>
        <mxCell id="x3CIIrRggAREQ0Kq1t4n-27" value="" style="endArrow=none;html=1;rounded=0;exitX=0.5;exitY=1;exitDx=0;exitDy=0;entryX=0.5;entryY=0;entryDx=0;entryDy=0;" edge="1" parent="1" source="x3CIIrRggAREQ0Kq1t4n-19" target="x3CIIrRggAREQ0Kq1t4n-18">
          <mxGeometry width="50" height="50" relative="1" as="geometry">
            <mxPoint x="410" y="110" as="sourcePoint" />
            <mxPoint x="460" y="60" as="targetPoint" />
          </mxGeometry>
        </mxCell>
        <mxCell id="x3CIIrRggAREQ0Kq1t4n-28" value="" style="endArrow=none;html=1;rounded=0;exitX=1;exitY=0.5;exitDx=0;exitDy=0;entryX=0;entryY=0.5;entryDx=0;entryDy=0;" edge="1" parent="1" source="x3CIIrRggAREQ0Kq1t4n-17" target="x3CIIrRggAREQ0Kq1t4n-4">
          <mxGeometry width="50" height="50" relative="1" as="geometry">
            <mxPoint x="410" y="110" as="sourcePoint" />
            <mxPoint x="460" y="60" as="targetPoint" />
          </mxGeometry>
        </mxCell>
        <mxCell id="x3CIIrRggAREQ0Kq1t4n-29" value="Address" style="ellipse;whiteSpace=wrap;html=1;" vertex="1" parent="1">
          <mxGeometry x="570" y="190" width="80" height="40" as="geometry" />
        </mxCell>
        <mxCell id="x3CIIrRggAREQ0Kq1t4n-30" value="" style="endArrow=none;html=1;rounded=0;entryX=0;entryY=0.5;entryDx=0;entryDy=0;exitX=1;exitY=0.5;exitDx=0;exitDy=0;" edge="1" parent="1" source="x3CIIrRggAREQ0Kq1t4n-4" target="x3CIIrRggAREQ0Kq1t4n-29">
          <mxGeometry width="50" height="50" relative="1" as="geometry">
            <mxPoint x="480" y="190" as="sourcePoint" />
            <mxPoint x="590" y="170" as="targetPoint" />
          </mxGeometry>
        </mxCell>
        <mxCell id="x3CIIrRggAREQ0Kq1t4n-32" value="RenterID" style="ellipse;whiteSpace=wrap;html=1;" vertex="1" parent="1">
          <mxGeometry x="180" y="290" width="80" height="40" as="geometry" />
        </mxCell>
        <mxCell id="x3CIIrRggAREQ0Kq1t4n-33" value="" style="endArrow=none;html=1;rounded=0;entryX=0.25;entryY=0;entryDx=0;entryDy=0;" edge="1" parent="1" source="x3CIIrRggAREQ0Kq1t4n-32" target="x3CIIrRggAREQ0Kq1t4n-1">
          <mxGeometry width="50" height="50" relative="1" as="geometry">
            <mxPoint x="270" y="350" as="sourcePoint" />
            <mxPoint x="210" y="420" as="targetPoint" />
          </mxGeometry>
        </mxCell>
        <mxCell id="x3CIIrRggAREQ0Kq1t4n-36" value="OwnerID" style="ellipse;whiteSpace=wrap;html=1;" vertex="1" parent="1">
          <mxGeometry x="310" y="450" width="80" height="40" as="geometry" />
        </mxCell>
        <mxCell id="x3CIIrRggAREQ0Kq1t4n-37" value="" style="endArrow=none;html=1;rounded=0;exitX=0.5;exitY=0;exitDx=0;exitDy=0;entryX=0.25;entryY=1;entryDx=0;entryDy=0;" edge="1" parent="1" source="x3CIIrRggAREQ0Kq1t4n-36" target="x3CIIrRggAREQ0Kq1t4n-2">
          <mxGeometry width="50" height="50" relative="1" as="geometry">
            <mxPoint x="545" y="390" as="sourcePoint" />
            <mxPoint x="485" y="460" as="targetPoint" />
          </mxGeometry>
        </mxCell>
        <mxCell id="x3CIIrRggAREQ0Kq1t4n-38" value="DriverID" style="ellipse;whiteSpace=wrap;html=1;" vertex="1" parent="1">
          <mxGeometry x="650" y="430" width="80" height="40" as="geometry" />
        </mxCell>
        <mxCell id="x3CIIrRggAREQ0Kq1t4n-39" value="" style="endArrow=none;html=1;rounded=0;exitX=0;exitY=0.5;exitDx=0;exitDy=0;entryX=1;entryY=0.5;entryDx=0;entryDy=0;" edge="1" parent="1" source="x3CIIrRggAREQ0Kq1t4n-38" target="x3CIIrRggAREQ0Kq1t4n-3">
          <mxGeometry width="50" height="50" relative="1" as="geometry">
            <mxPoint x="755" y="370" as="sourcePoint" />
            <mxPoint x="695" y="440" as="targetPoint" />
          </mxGeometry>
        </mxCell>
        <mxCell id="x3CIIrRggAREQ0Kq1t4n-40" value="Has" style="rhombus;whiteSpace=wrap;html=1;" vertex="1" parent="1">
          <mxGeometry x="370" y="470" width="80" height="80" as="geometry" />
        </mxCell>
        <mxCell id="x3CIIrRggAREQ0Kq1t4n-41" value="" style="endArrow=none;html=1;rounded=0;exitX=0.5;exitY=0;exitDx=0;exitDy=0;entryX=0.5;entryY=1;entryDx=0;entryDy=0;" edge="1" parent="1" source="x3CIIrRggAREQ0Kq1t4n-40" target="x3CIIrRggAREQ0Kq1t4n-2">
          <mxGeometry width="50" height="50" relative="1" as="geometry">
            <mxPoint x="420" y="370" as="sourcePoint" />
            <mxPoint x="420" y="290" as="targetPoint" />
          </mxGeometry>
        </mxCell>
        <mxCell id="x3CIIrRggAREQ0Kq1t4n-42" value="Vehicle" style="rounded=0;whiteSpace=wrap;html=1;" vertex="1" parent="1">
          <mxGeometry x="350" y="600" width="120" height="40" as="geometry" />
        </mxCell>
        <mxCell id="x3CIIrRggAREQ0Kq1t4n-43" value="" style="endArrow=none;html=1;rounded=0;exitX=0.5;exitY=0;exitDx=0;exitDy=0;entryX=0.5;entryY=1;entryDx=0;entryDy=0;" edge="1" parent="1" source="x3CIIrRggAREQ0Kq1t4n-42" target="x3CIIrRggAREQ0Kq1t4n-40">
          <mxGeometry width="50" height="50" relative="1" as="geometry">
            <mxPoint x="420" y="480" as="sourcePoint" />
            <mxPoint x="420" y="410" as="targetPoint" />
          </mxGeometry>
        </mxCell>
        <mxCell id="x3CIIrRggAREQ0Kq1t4n-44" value="Vehicle ID" style="ellipse;whiteSpace=wrap;html=1;" vertex="1" parent="1">
          <mxGeometry x="230" y="600" width="80" height="40" as="geometry" />
        </mxCell>
        <mxCell id="x3CIIrRggAREQ0Kq1t4n-45" value="" style="endArrow=none;html=1;rounded=0;exitX=1;exitY=0.5;exitDx=0;exitDy=0;entryX=0;entryY=0.5;entryDx=0;entryDy=0;" edge="1" parent="1" source="x3CIIrRggAREQ0Kq1t4n-44" target="x3CIIrRggAREQ0Kq1t4n-42">
          <mxGeometry width="50" height="50" relative="1" as="geometry">
            <mxPoint x="330" y="460" as="sourcePoint" />
            <mxPoint x="390" y="410" as="targetPoint" />
          </mxGeometry>
        </mxCell>
        <mxCell id="x3CIIrRggAREQ0Kq1t4n-46" value="Add date" style="ellipse;whiteSpace=wrap;html=1;" vertex="1" parent="1">
          <mxGeometry x="240" y="660" width="80" height="40" as="geometry" />
        </mxCell>
        <mxCell id="x3CIIrRggAREQ0Kq1t4n-47" value="" style="endArrow=none;html=1;rounded=0;exitX=1;exitY=0.5;exitDx=0;exitDy=0;entryX=0.25;entryY=1;entryDx=0;entryDy=0;" edge="1" parent="1" source="x3CIIrRggAREQ0Kq1t4n-46" target="x3CIIrRggAREQ0Kq1t4n-42">
          <mxGeometry width="50" height="50" relative="1" as="geometry">
            <mxPoint x="320" y="630" as="sourcePoint" />
            <mxPoint x="360" y="630" as="targetPoint" />
          </mxGeometry>
        </mxCell>
        <mxCell id="x3CIIrRggAREQ0Kq1t4n-48" value="licence" style="ellipse;whiteSpace=wrap;html=1;" vertex="1" parent="1">
          <mxGeometry x="670" y="365" width="80" height="40" as="geometry" />
        </mxCell>
        <mxCell id="x3CIIrRggAREQ0Kq1t4n-49" value="" style="endArrow=none;html=1;rounded=0;exitX=0;exitY=0.5;exitDx=0;exitDy=0;entryX=1;entryY=0.5;entryDx=0;entryDy=0;" edge="1" parent="1" source="x3CIIrRggAREQ0Kq1t4n-48" target="x3CIIrRggAREQ0Kq1t4n-3">
          <mxGeometry width="50" height="50" relative="1" as="geometry">
            <mxPoint x="700" y="430" as="sourcePoint" />
            <mxPoint x="650" y="390" as="targetPoint" />
          </mxGeometry>
        </mxCell>
        <mxCell id="x3CIIrRggAREQ0Kq1t4n-50" value="Assign" style="rhombus;whiteSpace=wrap;html=1;" vertex="1" parent="1">
          <mxGeometry x="540" y="460" width="80" height="80" as="geometry" />
        </mxCell>
        <mxCell id="x3CIIrRggAREQ0Kq1t4n-51" value="" style="endArrow=none;html=1;rounded=0;exitX=0.5;exitY=0;exitDx=0;exitDy=0;entryX=0.5;entryY=1;entryDx=0;entryDy=0;" edge="1" parent="1" source="x3CIIrRggAREQ0Kq1t4n-50" target="x3CIIrRggAREQ0Kq1t4n-3">
          <mxGeometry width="50" height="50" relative="1" as="geometry">
            <mxPoint x="420" y="480" as="sourcePoint" />
            <mxPoint x="420" y="410" as="targetPoint" />
          </mxGeometry>
        </mxCell>
        <mxCell id="x3CIIrRggAREQ0Kq1t4n-52" value="" style="endArrow=none;html=1;rounded=0;exitX=1;exitY=0.5;exitDx=0;exitDy=0;entryX=0.5;entryY=1;entryDx=0;entryDy=0;" edge="1" parent="1" source="x3CIIrRggAREQ0Kq1t4n-42" target="x3CIIrRggAREQ0Kq1t4n-50">
          <mxGeometry width="50" height="50" relative="1" as="geometry">
            <mxPoint x="590" y="470" as="sourcePoint" />
            <mxPoint x="590" y="410" as="targetPoint" />
            <Array as="points">
              <mxPoint x="580" y="620" />
            </Array>
          </mxGeometry>
        </mxCell>
        <mxCell id="x3CIIrRggAREQ0Kq1t4n-53" value="Place" style="rhombus;whiteSpace=wrap;html=1;" vertex="1" parent="1">
          <mxGeometry x="80" y="300" width="80" height="80" as="geometry" />
        </mxCell>
        <mxCell id="x3CIIrRggAREQ0Kq1t4n-54" value="" style="endArrow=none;html=1;rounded=0;exitX=1;exitY=0.5;exitDx=0;exitDy=0;entryX=0;entryY=0.25;entryDx=0;entryDy=0;" edge="1" parent="1" source="x3CIIrRggAREQ0Kq1t4n-53" target="x3CIIrRggAREQ0Kq1t4n-1">
          <mxGeometry width="50" height="50" relative="1" as="geometry">
            <mxPoint x="420" y="480" as="sourcePoint" />
            <mxPoint x="420" y="410" as="targetPoint" />
          </mxGeometry>
        </mxCell>
        <mxCell id="x3CIIrRggAREQ0Kq1t4n-55" value="" style="endArrow=none;html=1;rounded=0;entryX=0;entryY=0.5;entryDx=0;entryDy=0;exitX=1;exitY=0.5;exitDx=0;exitDy=0;" edge="1" parent="1" source="x3CIIrRggAREQ0Kq1t4n-57" target="x3CIIrRggAREQ0Kq1t4n-53">
          <mxGeometry width="50" height="50" relative="1" as="geometry">
            <mxPoint x="40" y="480" as="sourcePoint" />
            <mxPoint x="270" y="410" as="targetPoint" />
          </mxGeometry>
        </mxCell>
        <mxCell id="x3CIIrRggAREQ0Kq1t4n-57" value="Booking" style="rounded=0;whiteSpace=wrap;html=1;" vertex="1" parent="1">
          <mxGeometry x="-100" y="290" width="120" height="40" as="geometry" />
        </mxCell>
        <mxCell id="x3CIIrRggAREQ0Kq1t4n-58" value="date" style="ellipse;whiteSpace=wrap;html=1;" vertex="1" parent="1">
          <mxGeometry x="60" y="230" width="80" height="40" as="geometry" />
        </mxCell>
        <mxCell id="x3CIIrRggAREQ0Kq1t4n-59" value="" style="endArrow=none;html=1;rounded=0;exitX=1;exitY=1;exitDx=0;exitDy=0;entryX=0.5;entryY=0;entryDx=0;entryDy=0;" edge="1" parent="1" source="x3CIIrRggAREQ0Kq1t4n-58" target="x3CIIrRggAREQ0Kq1t4n-53">
          <mxGeometry width="50" height="50" relative="1" as="geometry">
            <mxPoint x="200" y="490" as="sourcePoint" />
            <mxPoint x="270" y="410" as="targetPoint" />
          </mxGeometry>
        </mxCell>
        <mxCell id="x3CIIrRggAREQ0Kq1t4n-60" value="BookingID" style="ellipse;whiteSpace=wrap;html=1;" vertex="1" parent="1">
          <mxGeometry x="-180" y="220" width="80" height="40" as="geometry" />
        </mxCell>
        <mxCell id="x3CIIrRggAREQ0Kq1t4n-61" value="" style="endArrow=none;html=1;rounded=0;exitX=1;exitY=0.5;exitDx=0;exitDy=0;entryX=0.25;entryY=0;entryDx=0;entryDy=0;" edge="1" parent="1" source="x3CIIrRggAREQ0Kq1t4n-60" target="x3CIIrRggAREQ0Kq1t4n-57">
          <mxGeometry width="50" height="50" relative="1" as="geometry">
            <mxPoint x="-20" y="215" as="sourcePoint" />
            <mxPoint x="-90" y="245" as="targetPoint" />
          </mxGeometry>
        </mxCell>
        <mxCell id="x3CIIrRggAREQ0Kq1t4n-62" value="1" style="text;html=1;strokeColor=none;fillColor=none;align=center;verticalAlign=middle;whiteSpace=wrap;rounded=0;" vertex="1" parent="1">
          <mxGeometry x="395" y="405" width="60" height="30" as="geometry" />
        </mxCell>
        <mxCell id="x3CIIrRggAREQ0Kq1t4n-64" value="M" style="text;html=1;strokeColor=none;fillColor=none;align=center;verticalAlign=middle;whiteSpace=wrap;rounded=0;" vertex="1" parent="1">
          <mxGeometry x="395" y="570" width="60" height="30" as="geometry" />
        </mxCell>
        <mxCell id="x3CIIrRggAREQ0Kq1t4n-65" value="M" style="text;html=1;strokeColor=none;fillColor=none;align=center;verticalAlign=middle;whiteSpace=wrap;rounded=0;" vertex="1" parent="1">
          <mxGeometry x="570" y="405" width="60" height="30" as="geometry" />
        </mxCell>
        <mxCell id="x3CIIrRggAREQ0Kq1t4n-66" value="N" style="text;html=1;strokeColor=none;fillColor=none;align=center;verticalAlign=middle;whiteSpace=wrap;rounded=0;" vertex="1" parent="1">
          <mxGeometry x="460" y="620" width="60" height="30" as="geometry" />
        </mxCell>
        <mxCell id="x3CIIrRggAREQ0Kq1t4n-67" value="M" style="text;html=1;strokeColor=none;fillColor=none;align=center;verticalAlign=middle;whiteSpace=wrap;rounded=0;" vertex="1" parent="1">
          <mxGeometry y="310" width="60" height="30" as="geometry" />
        </mxCell>
        <mxCell id="x3CIIrRggAREQ0Kq1t4n-68" value="1" style="text;html=1;strokeColor=none;fillColor=none;align=center;verticalAlign=middle;whiteSpace=wrap;rounded=0;" vertex="1" parent="1">
          <mxGeometry x="160" y="330" width="60" height="30" as="geometry" />
        </mxCell>
        <mxCell id="x3CIIrRggAREQ0Kq1t4n-69" value="Payment" style="rounded=0;whiteSpace=wrap;html=1;" vertex="1" parent="1">
          <mxGeometry x="-130" y="440" width="120" height="40" as="geometry" />
        </mxCell>
        <mxCell id="x3CIIrRggAREQ0Kq1t4n-70" value="Make" style="rhombus;whiteSpace=wrap;html=1;" vertex="1" parent="1">
          <mxGeometry x="50" y="400" width="80" height="80" as="geometry" />
        </mxCell>
        <mxCell id="x3CIIrRggAREQ0Kq1t4n-71" value="" style="endArrow=none;html=1;rounded=0;exitX=1;exitY=0.5;exitDx=0;exitDy=0;" edge="1" parent="1" source="x3CIIrRggAREQ0Kq1t4n-70" target="x3CIIrRggAREQ0Kq1t4n-1">
          <mxGeometry width="50" height="50" relative="1" as="geometry">
            <mxPoint x="180" y="485" as="sourcePoint" />
            <mxPoint x="240" y="410" as="targetPoint" />
          </mxGeometry>
        </mxCell>
        <mxCell id="x3CIIrRggAREQ0Kq1t4n-72" value="" style="endArrow=none;html=1;rounded=0;exitX=1;exitY=0.5;exitDx=0;exitDy=0;entryX=0;entryY=0.5;entryDx=0;entryDy=0;" edge="1" parent="1" source="x3CIIrRggAREQ0Kq1t4n-69" target="x3CIIrRggAREQ0Kq1t4n-70">
          <mxGeometry width="50" height="50" relative="1" as="geometry">
            <mxPoint x="200" y="490" as="sourcePoint" />
            <mxPoint x="256" y="410" as="targetPoint" />
          </mxGeometry>
        </mxCell>
        <mxCell id="x3CIIrRggAREQ0Kq1t4n-73" value="PaymentID" style="ellipse;whiteSpace=wrap;html=1;" vertex="1" parent="1">
          <mxGeometry x="-260" y="410" width="80" height="40" as="geometry" />
        </mxCell>
        <mxCell id="x3CIIrRggAREQ0Kq1t4n-74" value="" style="endArrow=none;html=1;rounded=0;exitX=1;exitY=0.5;exitDx=0;exitDy=0;entryX=0;entryY=0.5;entryDx=0;entryDy=0;" edge="1" parent="1" source="x3CIIrRggAREQ0Kq1t4n-73" target="x3CIIrRggAREQ0Kq1t4n-69">
          <mxGeometry width="50" height="50" relative="1" as="geometry">
            <mxPoint x="-240" y="270" as="sourcePoint" />
            <mxPoint x="-210" y="290" as="targetPoint" />
          </mxGeometry>
        </mxCell>
        <mxCell id="x3CIIrRggAREQ0Kq1t4n-75" value="1" style="text;html=1;strokeColor=none;fillColor=none;align=center;verticalAlign=middle;whiteSpace=wrap;rounded=0;" vertex="1" parent="1">
          <mxGeometry x="170" y="415" width="60" height="30" as="geometry" />
        </mxCell>
        <mxCell id="x3CIIrRggAREQ0Kq1t4n-76" value="M" style="text;html=1;strokeColor=none;fillColor=none;align=center;verticalAlign=middle;whiteSpace=wrap;rounded=0;" vertex="1" parent="1">
          <mxGeometry x="-30" y="430" width="60" height="30" as="geometry" />
        </mxCell>
        <mxCell id="x3CIIrRggAREQ0Kq1t4n-77" value="Amount" style="ellipse;whiteSpace=wrap;html=1;" vertex="1" parent="1">
          <mxGeometry x="-250" y="480" width="80" height="40" as="geometry" />
        </mxCell>
        <mxCell id="x3CIIrRggAREQ0Kq1t4n-78" value="" style="endArrow=none;html=1;rounded=0;exitX=1;exitY=0.5;exitDx=0;exitDy=0;entryX=0;entryY=0.75;entryDx=0;entryDy=0;" edge="1" parent="1" source="x3CIIrRggAREQ0Kq1t4n-77" target="x3CIIrRggAREQ0Kq1t4n-69">
          <mxGeometry width="50" height="50" relative="1" as="geometry">
            <mxPoint x="-170" y="440" as="sourcePoint" />
            <mxPoint x="-120" y="470" as="targetPoint" />
          </mxGeometry>
        </mxCell>
        <mxCell id="x3CIIrRggAREQ0Kq1t4n-79" value="VehicleID" style="ellipse;whiteSpace=wrap;html=1;" vertex="1" parent="1">
          <mxGeometry x="-200" y="300" width="80" height="40" as="geometry" />
        </mxCell>
        <mxCell id="x3CIIrRggAREQ0Kq1t4n-80" value="" style="endArrow=none;html=1;rounded=0;exitX=1;exitY=0.5;exitDx=0;exitDy=0;entryX=0;entryY=0.5;entryDx=0;entryDy=0;" edge="1" parent="1" source="x3CIIrRggAREQ0Kq1t4n-79" target="x3CIIrRggAREQ0Kq1t4n-57">
          <mxGeometry width="50" height="50" relative="1" as="geometry">
            <mxPoint x="-90" y="280" as="sourcePoint" />
            <mxPoint x="-60" y="300" as="targetPoint" />
          </mxGeometry>
        </mxCell>
        <mxCell id="x3CIIrRggAREQ0Kq1t4n-82" value="DriverID" style="ellipse;whiteSpace=wrap;html=1;" vertex="1" parent="1">
          <mxGeometry x="-160" y="365" width="80" height="40" as="geometry" />
        </mxCell>
        <mxCell id="x3CIIrRggAREQ0Kq1t4n-83" value="" style="endArrow=none;html=1;rounded=0;exitX=1;exitY=0.5;exitDx=0;exitDy=0;entryX=0.5;entryY=1;entryDx=0;entryDy=0;" edge="1" parent="1" source="x3CIIrRggAREQ0Kq1t4n-82" target="x3CIIrRggAREQ0Kq1t4n-57">
          <mxGeometry width="50" height="50" relative="1" as="geometry">
            <mxPoint x="-110" y="330" as="sourcePoint" />
            <mxPoint x="-90" y="320" as="targetPoint" />
          </mxGeometry>
        </mxCell>
        <mxCell id="x3CIIrRggAREQ0Kq1t4n-84" value="Employee" style="rounded=0;whiteSpace=wrap;html=1;" vertex="1" parent="1">
          <mxGeometry x="800" y="360" width="120" height="40" as="geometry" />
        </mxCell>
        <mxCell id="x3CIIrRggAREQ0Kq1t4n-85" value="" style="endArrow=none;html=1;rounded=0;exitX=0.5;exitY=0;exitDx=0;exitDy=0;entryX=0.5;entryY=1;entryDx=0;entryDy=0;" edge="1" parent="1" source="x3CIIrRggAREQ0Kq1t4n-84" target="x3CIIrRggAREQ0Kq1t4n-11">
          <mxGeometry width="50" height="50" relative="1" as="geometry">
            <mxPoint x="590" y="370" as="sourcePoint" />
            <mxPoint x="420" y="290" as="targetPoint" />
          </mxGeometry>
        </mxCell>
        <mxCell id="x3CIIrRggAREQ0Kq1t4n-87" value="" style="group" vertex="1" connectable="0" parent="1">
          <mxGeometry x="820" y="440" width="80" height="60" as="geometry" />
        </mxCell>
        <mxCell id="x3CIIrRggAREQ0Kq1t4n-88" value="" style="triangle;whiteSpace=wrap;html=1;rotation=-90;" vertex="1" parent="x3CIIrRggAREQ0Kq1t4n-87">
          <mxGeometry x="10" y="-10" width="60" height="80" as="geometry" />
        </mxCell>
        <mxCell id="x3CIIrRggAREQ0Kq1t4n-89" value="ISA" style="text;html=1;strokeColor=none;fillColor=none;align=center;verticalAlign=middle;whiteSpace=wrap;rounded=0;" vertex="1" parent="x3CIIrRggAREQ0Kq1t4n-87">
          <mxGeometry x="10" y="30" width="60" height="30" as="geometry" />
        </mxCell>
        <mxCell id="x3CIIrRggAREQ0Kq1t4n-91" value="Manager" style="rounded=0;whiteSpace=wrap;html=1;" vertex="1" parent="1">
          <mxGeometry x="910" y="560" width="120" height="40" as="geometry" />
        </mxCell>
        <mxCell id="x3CIIrRggAREQ0Kq1t4n-92" value="Worker" style="rounded=0;whiteSpace=wrap;html=1;" vertex="1" parent="1">
          <mxGeometry x="720" y="560" width="120" height="40" as="geometry" />
        </mxCell>
        <mxCell id="x3CIIrRggAREQ0Kq1t4n-93" value="" style="endArrow=none;html=1;rounded=0;exitX=1;exitY=0.5;exitDx=0;exitDy=0;entryX=0.5;entryY=1;entryDx=0;entryDy=0;" edge="1" parent="1" source="x3CIIrRggAREQ0Kq1t4n-88" target="x3CIIrRggAREQ0Kq1t4n-84">
          <mxGeometry width="50" height="50" relative="1" as="geometry">
            <mxPoint x="420" y="370" as="sourcePoint" />
            <mxPoint x="420" y="290" as="targetPoint" />
          </mxGeometry>
        </mxCell>
        <mxCell id="x3CIIrRggAREQ0Kq1t4n-94" value="" style="endArrow=none;html=1;rounded=0;exitX=0.5;exitY=0;exitDx=0;exitDy=0;entryX=0.25;entryY=1;entryDx=0;entryDy=0;" edge="1" parent="1" source="x3CIIrRggAREQ0Kq1t4n-92" target="x3CIIrRggAREQ0Kq1t4n-89">
          <mxGeometry width="50" height="50" relative="1" as="geometry">
            <mxPoint x="870" y="450" as="sourcePoint" />
            <mxPoint x="870" y="410" as="targetPoint" />
          </mxGeometry>
        </mxCell>
        <mxCell id="x3CIIrRggAREQ0Kq1t4n-96" value="" style="endArrow=none;html=1;rounded=0;exitX=0.5;exitY=0;exitDx=0;exitDy=0;entryX=0.75;entryY=1;entryDx=0;entryDy=0;" edge="1" parent="1" source="x3CIIrRggAREQ0Kq1t4n-91" target="x3CIIrRggAREQ0Kq1t4n-89">
          <mxGeometry width="50" height="50" relative="1" as="geometry">
            <mxPoint x="790" y="570" as="sourcePoint" />
            <mxPoint x="855" y="510" as="targetPoint" />
          </mxGeometry>
        </mxCell>
      </root>
    </mxGraphModel>
  </diagram>
</mxfile>
